<svg xmlns="http://www.w3.org/2000/svg" viewBox="0 0 1003 250" preserveAspectRatio="xMidYMid meet"><path fill="#f8f8f8" d="M58.149-28.383c11.231-2.015 22.555-3.091 33.923-3.966l1.79-.14c32.728-2.548 65.374-2.381 98.164-1.399 20.32.608 40.585.724 60.913.434l4.213-.058q8.466-.115 16.932-.24c15.778-.229 31.556-.372 47.335-.446l2.177-.01c22.92-.103 45.817.179 68.729.722l2.253.053c12.074.287 24.148.591 36.221.898 47.95 1.216 95.725 1.16 143.673-.058a21650 21650 0 0 1 38.455-.946c22.887-.54 45.76-.768 68.654-.66l2.176.011c15.762.078 31.522.237 47.282.467a18443 18443 0 0 0 21.125.297c20.326.29 40.587.082 60.905-.526 32.7-.974 65.226-.956 97.859 1.601l1.782.137c30.338 2.355 66.291 6.37 88.316 29.81 33.698 41.003 32.384 114.8 27.794 164.413-3.12 31.339-8.796 74.83-34.224 96.521-23.437 18.225-55.031 21.614-83.668 23.817l-1.79.14c-32.728 2.548-65.374 2.381-98.164 1.399-20.32-.608-40.585-.724-60.913-.434l-4.213.058q-8.466.115-16.932.24c-15.778.229-31.556.372-47.335.446l-2.177.01c-22.92.103-45.817-.179-68.729-.722l-2.253-.053c-12.074-.287-24.148-.591-36.221-.898-47.95-1.216-95.725-1.16-143.673.058-12.068.305-24.135.608-36.203.893l-2.252.053c-22.887.54-45.76.768-68.654.66l-2.176-.011a4880 4880 0 0 1-47.282-.467 18443 18443 0 0 0-21.125-.297c-20.326-.29-40.587-.082-60.905.526-32.7.974-65.226.956-97.859-1.601l-1.782-.137c-30.338-2.355-66.291-6.37-88.316-29.81-33.698-41.003-32.384-114.8-27.794-164.413C-20.09 30.405-4.516-16.085 58.15-28.383"/><path fill="#151515" d="m553.238 77.807 2.733-.049c4.176-.044 8.35-.085 12.526-.108q3.286-.025 6.572-.082c26.443-.462 26.443-.462 36.931 8.682 5.906 6.801 7.357 12.957 7.5 21.812l.056 2.29c-.1 8.944-4.406 15.435-10.556 21.648-1.62 1.433-3.255 2.717-5 4l2.312 1.664c2.754 2.213 4.144 4.509 5.688 7.711l.755 1.555c2.178 4.618 3.892 9.392 5.42 14.26 1.007 3.07 1.978 4.99 4.098 7.47L624 171c-.636 2.62-1.52 3.626-3.629 5.266-5.166 2.63-9.59 3.723-15.371 2.734-3.97-1.527-5.28-2.65-7.266-6.375-1.36-3.17-2.563-6.382-3.734-9.625q-1.189-3.183-2.387-6.362-.786-2.1-1.558-4.205c-1.7-4.874-1.7-4.874-4.055-9.433l-3-1-2.682-.945c-4.21-1.047-4.21-1.047-8.318-.055-1.523 5.892-.879 11.848-.5 17.875q.18 3.846.314 7.693.091 2.403.244 4.804c.108 2.194.108 2.194-.058 5.628-2.858.953-4.666 1.129-7.633 1.133l-2.691.004-2.801-.012-2.824.012-2.684-.004-2.465-.004C549 178 549 178 548 177c-.126-1.65-.126-1.65-.127-3.834l-.009-2.499.007-2.76-.006-2.893q-.004-4.757.002-9.514 0-3.29-.003-6.58-.002-6.906.006-13.81.007-7.994-.002-15.987-.007-7.676-.002-15.353 0-3.273-.002-6.546-.003-4.565.007-9.13l-.007-2.761.009-2.499.001-2.183c.26-3.402 2.467-2.797 5.364-2.844"/><path fill="#151515" d="m882.063 76.688 3.048-.05 2.924-.001 2.668-.01C893 77 893 77 894.637 78.028c2.108 3.051 3.044 6.381 4.14 9.903l.766 2.382c.807 2.518 1.6 5.04 2.394 7.563q.794 2.49 1.592 4.977a1588 1588 0 0 1 6.393 20.43c1.791 5.856 3.676 11.681 5.566 17.507l2.85 8.826q.983 3.038 1.976 6.074c.962 2.947 1.913 5.898 2.862 8.85l.905 2.746c.402 1.258.402 1.258.81 2.542l.725 2.23C926 174 926 174 925 177c-5.223 2.068-10.41 2.694-16 2-4.374-1.997-7.293-4.32-9.168-8.777l-1.02-3.16-1.042-3.153c-.77-2.91-.77-2.91-.38-5.037L897 157c-2.478-.574-4.492-.8-7.008-.875l-2.172-.081c-2.317-.057-4.627-.06-6.945-.044l-2.357.004c-7.413.098-7.413.098-14.518 1.996-3.4 3.736-3.642 8.03-4.199 12.887-.664 4.758-.664 4.758-1.801 7.113-5.515 2.75-13.22 1.582-19 0-1.69-.7-1.69-.7-3-2 .218-2.375.218-2.375 1.054-5.334l.918-3.282c1.616-5.382 3.357-10.719 5.16-16.04q.602-1.791 1.201-3.581 1.573-4.691 3.156-9.378 2.489-7.381 4.964-14.767a3554 3554 0 0 1 1.853-5.495 749 749 0 0 0 6.177-19.139l1.215-3.915a629 629 0 0 0 2.253-7.438q.517-1.674 1.037-3.348l.888-2.954C867 79 867 79 868.974 77.687c4.206-1.426 8.694-1.014 13.088-1"/><path fill="#151515" d="m491.438 76.813 2.236-.038c8.781-.023 8.781-.023 12.326 2.225 1.885 3.777 2.99 7.762 4.125 11.813q.518 1.74 1.04 3.477c.969 3.23 1.901 6.47 2.835 9.71a712 712 0 0 0 2.063 6.688l.906 2.968c1.342 4.351 2.715 8.692 4.093 13.031l.862 2.723a1259 1259 0 0 0 5.24 16.114q1.54 4.641 3.07 9.286a981 981 0 0 0 1.54 4.613c.73 2.171 1.448 4.346 2.163 6.522l.678 1.98c1.935 5.966 1.935 5.966.385 9.075-5.963 2.485-12.724 3.31-18.812.875-5.63-4.825-7.582-10.804-9.188-17.875v-3c-2.434-.428-4.588-.614-7.043-.672l-2.183-.06c-2.322-.041-4.64-.038-6.962-.018l-2.344.014c-8.804-.092-8.804-.092-16.506 3.417-2.471 4.167-2.953 8.647-2.913 13.434C469 175 469 175 468 178c-1.81.372-1.81.372-4.148.363l-2.547-.002-2.68-.048-2.656.01c-7.618-.065-7.618-.065-9.969-2.323.148-1.94.148-1.94.93-4.448l.919-3.01q.573-1.772 1.151-3.542l1.314-4.124c1.577-4.914 3.195-9.813 4.815-14.712l1.789-5.432q1.865-5.662 3.734-11.321 2.393-7.246 4.778-14.496 1.843-5.595 3.688-11.19l1.762-5.347q1.23-3.729 2.462-7.458l.729-2.216C476.7 80.768 476.7 80.768 478 78c4.154-1.586 9.023-1.184 13.438-1.187"/><path fill="#131313" d="M653.098 78.219c3.152 1.935 4.684 3.628 6.777 6.656l.999 1.423c3.046 4.41 5.828 8.999 8.512 13.637.82 1.387 1.71 2.731 2.614 4.065h2a79 79 0 0 0 3.371-5.652l1.99-3.541q1.56-2.81 3.114-5.623c1-1.804 2.01-3.602 3.021-5.399l.928-1.708c2.237-3.964 2.237-3.964 5.576-5.077 2.287-.148 4.525-.23 6.813-.25l1.83-.062c3.136-.028 6.162.265 9.181 1.14L712 80c-1.062 3.445-2.99 6.335-4.94 9.348a173 173 0 0 0-3.124 5.092c-2.178 3.663-4.399 7.3-6.624 10.935l-2.298 3.77-3.236 5.302q-1.39 2.276-2.778 4.553l-1.8 2.64c-1.375 2.213-1.375 2.213-1.086 4.334 1.151 2.633 2.545 4.995 4.062 7.436l.975 1.578q1.035 1.674 2.08 3.343c1.088 1.742 2.167 3.488 3.245 5.236 3.382 5.471 6.81 10.904 10.36 16.269l1.725 2.633q1.601 2.43 3.247 4.83l1.422 2.166 1.263 1.863L715 173c-2.96 3.803-7.297 5.602-11.988 6.293-4.889.2-8.894-.62-13.012-3.293-5.603-5.376-9.485-11.745-13.312-18.437a1171 1171 0 0 0-3.114-5.372l-1.356-2.368c-1.098-1.97-1.098-1.97-3.218-2.823-1.405 2.032-2.612 4.023-3.809 6.176l-1.113 1.94a995 995 0 0 0-3.515 6.196q-1.744 3.088-3.505 6.165a405 405 0 0 0-2.177 3.85c-2.932 5.128-2.932 5.128-5.881 6.673a79 79 0 0 1-7.312.25l-1.975.023c-4.234-.017-7.946-.233-11.713-2.273.293-2.062.293-2.062 2-5l1.104-1.941a355 355 0 0 1 4.208-7.059l1.582-2.627a759 759 0 0 1 8.754-14.146l1.792-2.84a646 646 0 0 1 3.458-5.407l1.582-2.503c.463-.722.926-1.443 1.404-2.185 1.394-2.862 1.943-5.107 2.116-8.292-1.048-2.718-1.048-2.718-2.832-5.273l-.933-1.46c-1-1.557-2.024-3.099-3.048-4.642q-1.035-1.607-2.068-3.218c-2.021-3.148-4.067-6.279-6.119-9.407a1057 1057 0 0 1-4.682-7.202 250 250 0 0 0-2.61-3.975c-2.726-4.227-2.726-4.227-2.638-7.135 1.325-2.405 3.191-3.208 5.7-4.149 5.541-1.34 11.01-1.413 16.328.68"/><path fill="#141414" d="m341 80 2.934.91c2.31.833 4.136 1.577 6.066 3.09 1.246 4.154.59 5.8-1.3 9.64-4.05 7.035-4.05 7.035-6.7 8.36a93 93 0 0 1-6.375-2.375c-6.286-2.554-11.369-3.84-18.125-3.937l-2.012-.088c-3.526-.046-5.023.05-7.922 2.236-1.775 2.13-1.775 2.13-2.128 5.102.727 3.96 2.406 5.752 5.562 8.062 3.658 1.875 7.438 3.405 11.25 4.938 11.922 4.822 24.32 10.444 29.688 23 2.245 7.095 1.63 15.122-.938 22.062-4.964 8.915-12.53 13.859-21.961 17.17-4.981 1.36-9.778 1.425-14.914 1.33l-3.188-.037c-7.96-.203-14.623-1.15-21.937-4.463l-1.606-.666c-3.43-1.436-6.534-2.94-9.394-5.334-.865-5.837 2.603-10.396 6-15l2-2c3.37.204 6.057 1.46 9.063 2.875 8.582 3.92 18.48 6.95 27.812 4.313 2.75-1.51 2.75-1.51 4.125-4.188.616-5.046.616-5.046-1.655-9.44-2.645-2.887-4.721-3.949-8.325-5.427l-1.735-.736a488 488 0 0 0-5.473-2.272c-11.849-4.854-22.286-9.62-28.062-21.75-1.943-8.742-1.505-16.687 3.25-24.375 3.907-5.878 8.643-9.083 15-12l1.98-.973C314.336 72.89 328.825 75.87 341 80"/><path fill="#131313" d="M431.027 84.293c5.364 4.641 9.539 10.468 10.274 17.644l.012 3.063.05 3.063c-.417 3.374-1.36 5.212-3.363 7.937-4.835 3.338-9.225 3.546-15 3l-2.246-.168L419 118c-.434-2.441-.434-2.441-.437-5.562-.294-5.868-1.454-10.119-5.563-14.438-4.595-2.994-9.721-2.48-15-2-3.774 1.285-5.262 3.082-7.187 6.438-5.757 12.841-5.941 31.642-.965 44.804 2.003 4.429 4.056 7.132 8.152 9.758 8.297 2.766 15.514.852 23.277-2.594 2.381-1.23 4.384-2.577 6.536-4.156L431 149c4.819 2.837 8.155 7.812 10 13-.264 2.643-.683 3.706-2.645 5.527-11.45 7.448-23.086 11.829-36.73 11.848l-2.71.074c-9.743.043-17.86-3.767-24.915-10.449-5.03-5.947-7.715-12.626-10-20l-1.09-3.117c-1.414-5.042-1.251-10.184-1.223-15.383l.018-3.227c.234-15.333 2.808-29.013 13.611-40.714 15.51-14.358 38.786-14.4 55.711-2.266"/><path fill="#1e4566" d="M119 84c3.692.692 3.692.692 5 2a230 230 0 0 1-.312 5.063c-.13 2.635-.13 2.635.312 4.937l3 1.313L130 96c.306-2.912.11-5.584-.18-8.496L130 85c1.867-.973 1.867-.973 4-1l2 2c-.016 2.383-.016 2.383-.25 5.125-.155 2.605-.155 2.605.25 4.875l3 1.313L142 96c.306-2.912.11-5.584-.18-8.496L142 85c1.867-.973 1.867-.973 4-1l2 2a80 80 0 0 1-.437 5.125c-.185 2.657-.185 2.657.437 4.875 2.342.663 4.252.369 6.664.125C157 96 157 96 160.063 97.375c2.344 3.176 1.98 4.072 1.625 7.875-.291 2.592-.291 2.592.312 4.75 2.703.731 4.849.503 7.617.156L172 110c2 2 2 2 2.25 4.063L174 116c-3.152 1.576-6.428.748-9.883.45L162 117c-.906 3.01-.906 3.01 0 6 2.743.543 2.743.543 6 .063 3.375-.34 3.375-.34 6-.063.5 2.434.5 2.434 0 5-2.584 1.292-4.26.896-7.125.688-2.607-.131-2.607-.131-4.875.312l-1.312 3 1.312 3c2.914.264 5.59.046 8.496-.277L173 135c.91 2.434.91 2.434 1 5l-1 1-2.504-.254c-3.056-.308-5.511-.51-8.496.254-.747 2.656-.434 4.78-.129 7.512.129 2.488.129 2.488-1.746 5.05-3.265 2.21-4.432 2.416-8.25 1.875-2.13-.19-2.13-.19-3.875.563-.602 2.655-.434 4.912-.184 7.617C148 166 148 166 147 168c-3.556-.556-3.556-.556-5-2 .084-1.689.192-3.376.313-5.062.13-2.636.13-2.636-.313-4.938l-3-1.312-3 1.312c-.306 2.912-.11 5.584.18 8.496L136 167c-1.867.973-1.867.973-4 1l-2-2c.016-2.383.016-2.383.25-5.125.155-2.605.155-2.605-.25-4.875l-3-1.312-3 1.312c-.306 2.912-.11 5.584.18 8.496L124 167c-1.867.973-1.867.973-4 1l-2-2c.087-1.712.241-3.422.438-5.125.185-2.66.185-2.66-.438-4.875-2.34-.618-4.27-.304-6.668-.05-2.622.056-3.422-.21-5.332-1.95-2.09-2.409-2.16-4.186-2.187-7.312.022-2.07.022-2.07-.813-3.688-2.66-.4-5.062-.182-7.738.047L93 143c-1.187-2.437-1.187-2.437-1-5l1-1c1.855.11 3.71.238 5.563.375 2.906.148 2.906.148 5.437-.375 1.43-1.997 1.436-3.046 1.113-5.457L104 130c-2.936-.387-5.554-.175-8.496.145L93 130c-.973-1.863-.973-1.863-1-4l2-2c2.164.016 2.164.016 4.625.25 2.343.155 2.343.155 4.375-.25 1.5-3 1.5-3 0-6-2.363-.436-4.444-.307-6.836-.113C94 118 94 118 92 117c-.25-2.562-.25-2.562 1-5 2.3-.047 2.3-.047 5.063.188 2.667.238 2.667.238 4.937-.188.782-2.103.5-3.684.238-5.898-.33-2.913.264-4.606 1.762-7.102 2.125-1.812 2.125-1.812 5-3q2.16.214 4.313.5c2.047.264 2.047.264 3.687-.5.583-2.938.431-5.516.184-8.496L118 85z"/><path fill="#121212" d="M759.234 80.188c4.325-.166 7.36-.009 10.766 2.812 1.833 5.479 1.697 10.896 1.516 16.625l-.08 2.528c-.245 6.294-.707 12.568-1.186 18.847-.461 6.276-.852 12.546-1.101 18.834-.133 2.538-.376 5.05-.624 7.579-.288 4.368-.5 7.606 1.475 11.587 3.73 1.159 7.555.607 11.388.242 6.231-.551 6.231-.551 8.584 1.361.98 2.625 1.172 4.525 1.055 7.323l-.075 2.55c-.488 2.847-1.045 4.342-2.952 6.524-8.595 3.3-19.202 1.778-28.219 1.294-3.668-.176-7.338-.246-11.01-.327-5.355-.136-10.707-.307-16.058-.568l-3.277-.158C727 177 727 177 726 176c-.13-1.566-.13-1.566-.133-3.562l-.004-2.165.012-2.273-.012-2.273.004-2.165.004-1.996C726 160 726 160 727 159c1.554.187 3.102.429 4.645.693 8.325 1.172 8.325 1.172 16.355-.693 3.87-6.25 1.89-15.551 1.313-22.5a736 736 0 0 1-.288-6.504A411 411 0 0 0 748 114l-2.073 1.677-2.724 2.194-2.698 2.178c-3.845 2.995-6.556 4.871-11.567 5.076-4.121-1.578-6.008-4.218-7.938-8.125-.95-2.488-.95-2.488-1-5 1.68-1.652 3.04-2.71 5-3.937q1.538-1.043 3.074-2.09l1.525-1.02c5.951-4.05 12.419-9.7 15.023-16.602 2.788-6.596 7.869-7.596 14.612-8.163"/><path fill="#1e4465" d="M117.996 37.555c6.127 4.419 10.223 11.257 11.602 18.652.52 4.178.586 8.338.59 12.543l.037 2.285.005 2.2.013 1.975c-.292 2.153-.63 3.303-2.243 4.79-2.1-.524-2.1-.524-4-2-.45-2.072-.45-2.072-.398-4.621l-.003-2.82.026-2.996c-.174-9.766-.953-16.831-8.11-24.063-4.021-3.114-8.655-3.855-13.562-3.246C97.43 41.198 94.198 42.535 91 46c-3.69 6.134-5.228 11.827-3.562 18.844C89.19 69.84 92.468 73.319 97 76c2.403.706 4.696 1.165 7.18 1.48L106 78c1 3 1 3 .352 4.719C105 84 105 84 102.898 84.03 94.512 82.266 87.888 79.333 83 72c-1.898-2.942-2.042-3.72-1.5-7.312L81 62c-5.353-1.044-10.336.821-14.875 3.563-4.937 3.67-7.47 7.56-8.496 13.632C57.289 85.097 58.932 89.988 62 95c2.93 3.102 6.195 4.58 10 6.375 4.558 2.208 7.235 4.426 10 8.625l1.75 2.25c1.853 4.077 2.218 8.29 2.25 12.75l-1 2c-2.48-.023-2.48-.023-5-1-.863-2.477-.863-2.477-1.312-5.625-1.213-5.881-3.063-8.519-7.75-12.168-4.13-2.572-8.222-2.824-12.938-2.207-5.2 1.868-9.026 5.392-12 10-2.152 6.456-1.679 12.31 1.25 18.438 1.784 3.43 3.397 5.587 6.75 7.562 3.12.847 6.243 1.448 9.418 2.059C66 145 66 145 67.07 146.887 67 149 67 149 65.637 150.71l-1.95 1.664c-4.541 4.27-5.728 7.894-6 14.063.156 5.776 1.767 10.158 5.75 14.375 4.4 3.756 7.562 4.592 13.254 4.433 4.88-.52 8.627-2.212 12.059-5.746 2.831-3.633 3.52-7.86 4.379-12.305L94 165c2.027-.383 2.027-.383 4 0 1 1 1 1 1.02 2.785-.716 7.87-2.755 13.398-8.832 18.59-2.215 2.077-3.1 3.043-3.555 6.074.386 5.611 1.964 9.16 5.367 13.551v2c2.07 1.133 2.07 1.133 5 2l2.02.676c5.131 1.465 8.914 1.484 13.902-.504 4.886-2.755 7.705-6.431 9.215-11.79 1.284-5.582 1.22-11.228 1.254-16.93l.07-2.48.025-2.241L124 175c1.909-.873 1.909-.873 4-1 2.636 2.636 2.281 4.033 2.33 7.612l-.018 2.263c-.005.764-.01 1.529-.017 2.316-.216 10.213-1.852 19.275-9.295 26.809-4.587 4.152-10.078 5.938-16.23 6.035-7.482-.528-13.235-3.143-18.52-8.472-3.09-3.65-4.006-6.971-5.062-11.5-.55-2.255-1.167-3.934-2.188-6.063-2.622-1.098-4.577-1.067-7.406-.992-5.434-.017-9.874-3.13-13.844-6.633-5.308-5.772-7.457-13.18-7.152-20.914.686-4.196 2.49-7.706 4.402-11.461l1-3c-1.748-1.322-1.748-1.322-4.125-2.375-7.119-3.741-10.354-7.213-13.145-14.879-1.924-7.236-1.466-13.925 1.942-20.61 3.26-5.243 6.44-9.797 12.516-11.636L56 99c-.532-2.3-1.523-3.974-2.781-5.965C50.299 88.161 50.424 82.517 51 77c2.139-7.528 6.683-14.064 13.25-18.375C68.525 56.397 73.226 55.956 78 56l2 1 .121-1.836C81.128 47.086 84.738 42.108 91 37c9.458-5.387 17.827-5.027 26.996.555"/><path fill="#1d4465" d="M178 39c2.375 2.5 2.375 2.5 4 5l1.625 2.375c1.273 2.43 1.547 3.756 1.938 6.375.36 1.838.36 1.838 1.437 3.25 2.473.631 4.788.693 7.336.781 6.14.504 11.253 3.998 15.344 8.469 4.411 5.848 5.985 11.678 5.718 18.965C214.58 89.938 212.351 95.29 209 100l2 .125c6.183 1.803 11.52 6.52 15 11.875 3.217 6.595 3.158 15.24 1 22.188-2.485 5.644-7.003 11.345-12.57 14.07C212 149 212 149 209 149l1.875 2.625c4.218 6.447 4.969 12.794 4.125 20.375-2.1 7.53-6.695 14.072-13.25 18.375-4.275 2.228-8.976 2.669-13.75 2.625l-2-1-.262 2.125c-1.322 8.928-4.061 15.203-11.21 20.867-5.902 3.894-12.166 4.631-19.09 3.446-6.542-1.724-11.452-5.627-15.313-11.125-5.081-9.068-4.658-20.205-4.125-30.313l1-3c2.53.025 2.53.025 5 1 .58 1.99.58 1.99.531 4.594l.02 2.875-.102 5.969c.047 7.03 1.365 11.848 5.551 17.562 4.017 3.917 7.712 5.692 13.25 6.438 4.952-.206 8.997-2.288 12.75-5.438 2.93-4.086 4.582-8.257 5.75-13.125-1.015-3.891-3.215-5.912-5.93-8.809-4.847-5.502-6.896-11.75-6.82-19.066l1-2c1.938-.062 1.938-.062 4 1a65 65 0 0 1 2 7c1.664 5.248 4.52 9.484 9.25 12.375 5.788 1.315 11.389 1.382 16.75-1.375l2.188-.875c2.307-1.432 2.81-2.62 3.812-5.125l1.125-2.187c2.104-6.764 1.146-12.442-1.895-18.743-1.206-2.03-2.512-3.646-4.105-5.382L199 148c.54-2.11.54-2.11 2-4 2.39-.652 2.39-.652 5.25-.937 5.211-.792 8.461-1.857 11.75-6.063 3.481-5.208 3.717-10.904 3-17-1.307-5.237-3.942-8.536-8-12-4.512-2.677-8.883-2.89-14-2-4.588 2.375-8.213 5.648-11 10-.598 2.322-.935 4.605-1.277 6.977C186 125 186 125 184.059 126.398L182 127c-2-2-2-2-2.152-3.883.839-8.754 5.017-14.637 11.257-20.66 2.517-1.935 5.04-2.768 8.036-3.727 4.107-1.613 6.287-4.531 8.172-8.48 1.462-6.914 1.478-13.64-2.278-19.844-3.203-4.4-6.814-6.145-12.035-7.406l-1.93-.527c-2.074-.446-2.074-.446-5.07.527-1.354 2.39-2.18 4.787-3.05 7.39-2.038 5.6-5.826 9.125-11.048 11.856-3.782 1.5-7.883 2.56-11.761 1.012L159 82c.52-2.047.52-2.047 2-4 2.137-.766 2.137-.766 4.688-1.25 5.914-1.543 8.996-4.72 12.312-9.75 1.695-5.086 2.11-11.329-.187-16.312C174.729 46.115 171.145 42.222 166 40c-4.993-.872-8.903-.425-13.312 2.125-5.742 4.064-8.363 8.983-9.688 15.875-.343 4.618-.366 9.247-.39 13.877l-.07 2.775c-.01.836-.017 1.67-.026 2.531L142 79c-1.909.397-1.909.397-4 0-2.484-2.484-2.257-3.963-2.279-7.357l.029-2.143.025-2.194c.231-11.151 2.462-20.051 10.237-28.49 9.423-8.608 22.297-6.886 31.988.184"/><path fill="#121212" d="m946.785 76.867 2.108-.004 2.17.012 2.181-.012 2.104.004 1.906.004C959 77 959 77 962 78c.433 1.685.433 1.685.516 3.917l.113 2.554.077 2.822.113 2.956c.32 8.979.494 17.965.62 26.948.093 6.652.264 13.293.535 19.94.206 5.228.287 10.452.325 15.684q.053 3.346.224 6.69c.69 14.145.69 14.145-2.523 18.489-6.444 3.487-13.772 3.297-20.664 1.263-2.739-1.48-3.405-2.308-4.41-5.223-1.027-5.93-.611-11.899-.313-17.88q.05-3.36.07-6.719c.052-4.708.175-9.406.362-14.11.265-6.64.375-13.277.457-19.922.068-5.146.182-10.291.299-15.436l.073-3.348c.079-3.112.187-6.221.307-9.332l.066-2.822.117-2.554.08-2.232L939 78c2.591-.993 5.028-1.128 7.785-1.133"/><path fill="#1b4263" d="M119 84c3.692.692 3.692.692 5 2a230 230 0 0 1-.312 5.063c-.13 2.635-.13 2.635.312 4.937l3 1.313L130 96c.306-2.912.11-5.584-.18-8.496L130 85c1.867-.973 1.867-.973 4-1l2 2c-.016 2.383-.016 2.383-.25 5.125-.155 2.605-.155 2.605.25 4.875l3 1.313L142 96c.306-2.912.11-5.584-.18-8.496L142 85c1.867-.973 1.867-.973 4-1l2 2a80 80 0 0 1-.437 5.125c-.185 2.657-.185 2.657.437 4.875 2.342.663 4.252.369 6.664.125C157 96 157 96 160.063 97.375c2.344 3.176 1.98 4.072 1.625 7.875-.291 2.592-.291 2.592.312 4.75 2.703.731 4.849.503 7.617.156L172 110c2 2 2 2 2.25 4.063L174 116c-3.152 1.576-6.428.748-9.883.45L162 117c-.906 3.01-.906 3.01 0 6 2.743.543 2.743.543 6 .063 3.375-.34 3.375-.34 6-.063.5 2.434.5 2.434 0 5-2.584 1.292-4.26.896-7.125.688-2.607-.131-2.607-.131-4.875.312l-1.312 3 1.312 3c2.914.264 5.59.046 8.496-.277L173 135c.91 2.434.91 2.434 1 5l-1 1-2.504-.254c-3.056-.308-5.511-.51-8.496.254-.747 2.656-.434 4.78-.129 7.512.129 2.488.129 2.488-1.746 5.05-3.265 2.21-4.432 2.416-8.25 1.875-2.13-.19-2.13-.19-3.875.563-.602 2.655-.434 4.912-.184 7.617C148 166 148 166 147 168c-3.556-.556-3.556-.556-5-2 .084-1.689.192-3.376.313-5.062.13-2.636.13-2.636-.313-4.938l-3-1.312-3 1.312c-.306 2.912-.11 5.584.18 8.496L136 167c-1.867.973-1.867.973-4 1l-2-2c.016-2.383.016-2.383.25-5.125.155-2.605.155-2.605-.25-4.875l-3-1.312-3 1.312c-.306 2.912-.11 5.584.18 8.496L124 167c-1.867.973-1.867.973-4 1l-2-2c.087-1.712.241-3.422.438-5.125.185-2.66.185-2.66-.438-4.875-2.34-.618-4.27-.304-6.668-.05-2.622.056-3.422-.21-5.332-1.95-2.09-2.409-2.16-4.186-2.187-7.312.022-2.07.022-2.07-.813-3.688-2.66-.4-5.062-.182-7.738.047L93 143c-1.187-2.437-1.187-2.437-1-5l1-1c1.855.11 3.71.238 5.563.375 2.906.148 2.906.148 5.437-.375 1.43-1.997 1.436-3.046 1.113-5.457L104 130c-2.936-.387-5.554-.175-8.496.145L93 130c-.973-1.863-.973-1.863-1-4l2-2c2.164.016 2.164.016 4.625.25 2.343.155 2.343.155 4.375-.25 1.5-3 1.5-3 0-6-2.363-.436-4.444-.307-6.836-.113C94 118 94 118 92 117c-.25-2.562-.25-2.562 1-5 2.3-.047 2.3-.047 5.063.188 2.667.238 2.667.238 4.937-.188.782-2.103.5-3.684.238-5.898-.33-2.913.264-4.606 1.762-7.102 2.125-1.812 2.125-1.812 5-3q2.16.214 4.313.5c2.047.264 2.047.264 3.687-.5.583-2.938.431-5.516.184-8.496L118 85zm-10 19a61 61 0 0 0-.13 4.213l-.009 2.71.006 2.948-.003 3.008q0 3.156.006 6.313.005 4.842-.007 9.685 0 3.06.004 6.12l-.006 2.941.01 2.72.002 2.4c.006 2.024.006 2.024 1.127 3.942 1.954.302 1.954.302 4.32.243l2.781.01 3.024-.023h3.083q3.232-.006 6.466-.024c3.312-.018 6.623-.02 9.935-.02q3.133-.007 6.266-.018l3.024-.003 2.78-.02 2.461-.011c1.875.069 1.875.069 2.86-1.134.103-1.401.138-2.808.145-4.213l.02-2.71.003-2.948.01-3.008q.007-3.156.007-6.313c.002-3.228.02-6.456.04-9.685q.005-3.06.005-6.12l.022-2.941-.01-2.72.005-2.4c-.076-2.179-.076-2.179-2.247-3.942-2.013-.298-2.013-.298-4.342-.243l-2.72-.01-2.942.023h-3.01q-3.155.006-6.308.024c-3.23.018-6.461.02-9.692.02l-6.115.018-2.948.003-2.71.02-2.398.011c-1.836-.063-1.836-.063-2.815 1.134"/><path fill="#eff1f2" d="m114.213 101.855 2.71-.02 2.948-.003 3.008-.01q3.156-.007 6.313-.007c3.228-.002 6.456-.02 9.685-.04q3.06-.005 6.12-.005l2.941-.022 2.72.01 2.4-.005C155 102 155 102 157 104c.247 1.942.247 1.942.243 4.342l.01 2.72-.023 2.942v3.01q-.006 3.155-.024 6.308c-.018 3.23-.02 6.461-.02 9.692l-.018 6.115-.003 2.948-.02 2.71-.011 2.398C157 149 157 149 156 150c-1.437.103-2.88.138-4.32.145l-2.781.02-3.024.003-3.083.01q-3.232.007-6.466.007c-3.312.002-6.623.02-9.935.04q-3.133.005-6.266.005l-3.024.022-2.78-.01-2.461.005L110 150c-1.172-2.344-1.127-3.73-1.13-6.342l-.009-2.72.006-2.942-.003-3.01q0-3.155.006-6.308.005-4.845-.007-9.692 0-3.057.004-6.115l-.006-2.948.01-2.71.002-2.398c.248-3.544 2.279-2.946 5.34-2.96M114 108a190 190 0 0 0-.168 7.902l-.01 2.403q-.007 2.52-.007 5.041c-.002 2.577-.02 5.154-.04 7.73q-.005 2.445-.005 4.889l-.022 2.345.01 2.174-.005 1.916c.128 1.875.128 1.875 2.247 3.6a90 90 0 0 0 7.563.23h2.263q2.37-.006 4.741-.024c2.423-.018 4.846-.02 7.269-.02l4.602-.018 2.203-.003c3.806.025 3.806.025 7.359-1.165.3-1.587.3-1.587.243-3.494l.01-2.235-.023-2.427v-2.477a966 966 0 0 0-.024-5.196c-.018-2.66-.02-5.32-.02-7.98l-.018-5.035-.003-2.427c.314-3.665.314-3.665-1.165-6.729-2.655-.101-5.283-.14-7.937-.133l-2.41-.003q-2.528 0-5.054.006-3.881.006-7.763-.007-2.45 0-4.898.004l-2.362-.006c-3.584-.32-3.584-.32-6.576 1.139"/><path fill="#f9f9f9" d="M125.89 110.258c6.858-1.286 14.132-1.1 20.11 2.742 3.74 6.275 3.87 13.807 2.64 20.883-1.162 3.93-1.836 5.6-5.306 7.83-6.903 2.202-13.765 2.202-20.668 0-3.47-2.23-4.144-3.9-5.307-7.83-1.58-9.093-1.641-20.381 8.532-23.625"/><path fill="#f6f6f6" d="M575.034 94.02c7.056-.466 13.166.967 18.778 5.418 2.796 3.678 2.579 8.644 2.54 13.085-.545 3.838-2.336 6.128-5.352 8.477-4.629 2.85-10.316 4.311-15.746 3.93-1.785-.572-1.785-.572-3.254-1.93-1.544-4.636-1.724-9.145-1.813-14l-.101-2.029c-.44-11.21-.44-11.21 4.948-12.951"/><path fill="#161616" d="M824.25 158.05C826 159 826 159 827 162c.784 10.758.784 10.758-2 15-3.874 1.969-7.185 2.297-11.5 2.313l-3.344.05c-3.51-.404-5.375-1.211-8.156-3.363-1.054-3.162-1.234-5.615-1.312-8.937l-.114-3.153c.529-3.612 1.58-4.7 4.426-6.91 6.612-2.204 12.756-1.08 19.25 1.05"/><path fill="#f1f1f1" d="M879 100h2c.714 1.905.714 1.905 1.367 4.574l.74 2.947.768 3.166q.793 3.17 1.594 6.336l.785 3.113c1.198 4.6 2.613 9.114 4.082 13.634C891 136 891 136 891 138c-3.481.606-7.036.51-10.562.563l-3.061.15c-2.627.037-4.859.043-7.377-.713-.352-3.031.006-4.194 1-7q.675-2.462 1.34-4.926.792-2.695 1.597-5.386c1.873-6.266 3.49-12.415 4.538-18.876z"/><path fill="#f2f2f2" d="M489 100h2c.714 1.706.714 1.706 1.367 4.102l.74 2.656.768 2.867 1.594 5.781.785 2.883q.983 3.568 2.027 7.117l.567 1.931 1.488 5.046C501 135 501 135 501 138c-1.928.34-1.928.34-4.594.293l-2.87-.03c-1.002-.024-2.004-.05-3.036-.076l-3.035-.04A717 717 0 0 1 480 138c1.622-7.975 3.425-15.861 5.584-23.71a148 148 0 0 0 2.924-12.849z"/></svg>